<?xml version="1.0" encoding="utf-8"?>
<!-- Generator: Adobe Illustrator 24.2.0, SVG Export Plug-In . SVG Version: 6.00 Build 0)  -->
<svg version="1.1" id="Layer_1" xmlns="http://www.w3.org/2000/svg" xmlns:xlink="http://www.w3.org/1999/xlink" x="0px" y="0px"
	 viewBox="0 0 396 396" style="enable-background:new 0 0 396 396;" xml:space="preserve">
<style type="text/css">
	.st0{fill:#F2F2F2;}
	.st1{fill:#FFFFFF;stroke:#0D0D0D;stroke-width:5.1315;stroke-miterlimit:10;}
	.st2{fill:#151515;stroke:#676767;stroke-width:0.1604;stroke-miterlimit:10;}
	.st3{fill:#151515;}
	.st4{fill:#FFFFFF;}
	.st5{fill:#0D0D0D;}
	.st6{fill:#676767;}
	.st7{fill:#E5E5E4;}
	.st8{fill:#4D4E4E;}
	.st9{fill:#E5E5E4;stroke:#0D0D0D;stroke-width:4.4901;stroke-linejoin:round;stroke-miterlimit:10;}
	.st10{opacity:0.45;fill:#FFFFFF;}
	.st11{opacity:0.68;fill:#FFFFFF;}
	.st12{opacity:0.52;fill:#676767;}
	.st13{opacity:0.39;fill:#676767;}
	.st14{opacity:0.54;fill:#8C8B8B;}
	.st15{fill:none;stroke:#676767;stroke-width:10.263;stroke-linejoin:round;stroke-miterlimit:10;}
	.st16{opacity:0.47;fill:none;stroke:#676767;stroke-width:6.2133;stroke-miterlimit:10;}
	.st17{opacity:0.25;fill:none;stroke:#676767;stroke-width:5.1315;stroke-linejoin:round;stroke-miterlimit:10;}
	.st18{fill:#E9E9E9;}
	.st19{opacity:0.5;fill:#CDCDCD;}
</style>
<g>
	<path class="st0" d="M236.27,345.67c0,0,12.19-1.28,0.64,8.34c0,0-34,14.75-79.54-0.64"/>
	<path class="st1" d="M300.17,228.15c0,2.77-0.09,5.52-0.26,8.24c0,0,1.41,68.67-26.41,72.92c0,0-14.64,2.84-16.36,25.75
		c-1.24,12.6-3.52,28.8-3.52,28.8c-0.51,0.62-1.04,1.23-1.6,1.83c-22.83,24.2-88.25,23.09-109.15-1.83
		c-1.78-11.13-3.61-28.8-3.61-28.8c-7.23-29.45-16.43-28.14-16.43-28.14c-27.93-4.25-26.52-72.92-26.52-72.92
		c-0.17-2.72,0.65-5.63-0.26-8.24c-22.7-64.82,45.75-114.38,102.19-114.38s123.35,50.84,102.19,114.38
		c-1.38,4.15-0.22,8.68-0.65,12.92"/>
	<path class="st2" d="M208.24,267.54c-3.93-7.53-7.95-15.67-12.44-13.75c-0.82,0.35-1.49,1.03-2.03,1.95
		c-2.71,2.51-5.27,7.6-7.8,12.45c-4.14,7.93-7.53,14.4-0.82,19.63c5.27,4.12,9.04-0.21,12.12-6.24c3.02,5.68,6.7,9.55,11.78,5.59
		C215.76,281.94,212.38,275.47,208.24,267.54z"/>
	<g>
		<ellipse class="st3" cx="241.36" cy="221.81" rx="23.92" ry="35.03"/>
		<ellipse class="st3" cx="153.83" cy="221.81" rx="23.92" ry="35.03"/>
		<ellipse class="st4" cx="153.5" cy="221.81" rx="8.82" ry="12.92"/>
		<ellipse class="st4" cx="241.93" cy="221.81" rx="8.82" ry="12.92"/>
	</g>
	<path class="st5" d="M112.53,240.13c0,0,2.49,2.12,2.33,7.22c0,0-3.23,58.35,35.54,38.8c0,0,8.65,7.67,0.81,28.01
		c-1.5,3.88-1.89,0.37-3.94-1.03c0,0,6.55-19.46,1.7-22.47c0,0-36.07,27.97-36.61-43.01c0,0-4.13-15.34-8.61-0.3
		C103.73,247.35,105.35,235.02,112.53,240.13z"/>
	<path class="st5" d="M282.79,240.13c0,0-2.49,2.12-2.33,7.22c0,0,3.23,58.35-35.54,38.8c0,0-6.68,1.45-0.81,28.01
		c0.9,4.06,1.23-1.27,3.29-2.67c0,0-5.89-17.83-1.05-20.83c0,0,36.07,27.97,36.61-43.01c0,0,4.13-15.34,8.61-0.3
		C291.58,247.35,289.96,235.02,282.79,240.13z"/>
	<path class="st5" d="M247.4,175.03c0,0,24.54,0.33,25.85,35.34C273.25,210.37,282.09,170.77,247.4,175.03z"/>
	<path class="st5" d="M148.21,175.33c0,0-24.54,0.33-25.85,35.34C122.35,210.67,113.52,171.07,148.21,175.33z"/>
	<path class="st5" d="M151.8,291.74l-2.9-1.19l-10.74,4.5c0,0,11.77-1.71,12.4,8.68c0,0-9.95,13.24,0.41,19.01
		c0,0,3.16,3.81,3.16,11.34l18.33,4.37l30.17,1.24l41.49-5.28c0,0,1.96-0.65,2.62-12.11c0,0,6.55-3.27,0.65-21.93
		c0,0,4.69-8.32,9.38-3.67l-12-10.4l-0.81,14.54l0.16,13.28l-10.8,5.89l-76.58,1.96"/>
	<path class="st4" d="M246.54,311.63c0,0,2.6,20.29-12.18,8.84c0,0-8.64,16.31-16.94,1.16c0,0-6.61,15.66-17.65,1.04
		c-9.74,15.59-17.48-1.19-17.48-1.19c-8.3,15.14-16.94-1.16-16.94-1.16c-14.78,11.45-14.95-7.38-14.95-7.39c0,0,0,0,0,0
		s0.65-6.5,6.17-14.94l82.83-2.27C239.4,295.71,248.17,306.76,246.54,311.63z"/>
	<path class="st4" d="M244.29,338.17c0,0-6.22-11.78-12.91,1.3c0,0-7.98-12.77-15.65,1.21c0,0-8.09-13.32-16.15-1.1
		c-11.26-11.23-16.16,0.87-16.16,0.87c-6.55-12.76-15.79-3.09-15.79-3.09c-6.79-10.33-11.25-2.31-11.25-2.31l-1.43,12.27
		c0,0,36.33,13.09,68.4,4.91C223.35,352.24,243.31,356.17,244.29,338.17z"/>
	<ellipse class="st5" cx="289.94" cy="245.88" rx="8.51" ry="20.78"/>
	<ellipse class="st5" cx="106.22" cy="247.21" rx="8.51" ry="20.78"/>
	<path class="st6" d="M295.92,230.85l-7.7-0.64c0,0-11.56,19.31,0.62,31.49l7.7,0.64L295.92,230.85z"/>
	<ellipse class="st7" cx="296.04" cy="246.37" rx="6.3" ry="15.38"/>
	<ellipse class="st8" cx="298.93" cy="246.21" rx="2.79" ry="6.81"/>
	<polygon class="st5" points="163.15,10.84 246.05,10.84 213.81,149.39 186.32,149.39 	"/>
	<polygon class="st9" points="163.15,10.84 188.52,39.06 218.03,39.06 246.53,10.84 	"/>
	<polygon class="st10" points="192.78,42.91 192.92,149.89 207.65,149.89 214.19,42.91 	"/>
	<ellipse class="st4" cx="201.31" cy="159.65" rx="28.54" ry="17.96"/>
	<polygon class="st11" points="220.88,46.76 209.33,157.73 238.99,21.2 	"/>
	<path class="st12" d="M161.22,330.27l-7.06,3.85c0-6.08-6.28-11.42-7.08-11.71c-0.98-0.2-1.6-0.62-2.32-1.34
		c-5.07-5.07,3.78-12.72-1.5-19.02c-5.29-6.31-15.39,1.28-24.62-7.62c-14.05-12.26-12.63-34.76-12.57-35.72l10.24,0.72l-5.12-0.36
		l5.12,0.35c-0.01,0.18-2.54,20.45,9.11,27.3c10.79,6.35,14.2,3.45,24.9,1.21c2.32-0.48,2.19,3.63,3.21,5.77
		c1.02,2.14,0.56,4.92-1.28,6.41c-1.29,1.07-2.39,5.31-2.57,8.98c-0.08,1.73-2.11,7.29-0.64,8.98
		C152.26,319.52,153.53,326.42,161.22,330.27z"/>
	<path class="st13" d="M197.14,384.8c-9.52,0-18.53,1.21-25.33-0.77c-20.59-5.99-29.99-17.99-30.48-18.48
		c-0.9-0.9-0.58-1.29-0.64-2.57c-1.39-28.76-9.57-46.25-12.19-51.32c-5.77-4.49-11.47-4.1-16.04-7.7
		c-14.95-11.77-15.26-39.25-15.39-40.41l10.26,2.57c0.01,0.06-1.02,7.37,1.28,14.75c2.89,9.25,4.97,13.67,9.62,17.32
		c3.3,2.6,7.38,6.32,11.57,5.81c1.81-0.22,3.6,0.53,4.7,1.98c0.32,0.41,3.16,4.3,6.15,13.18c3.71,11.03,6.05,24.74,6.96,40.78
		c3.43,2.91,13.08,10.26,27.53,14.36c24.35,6.92,50.25,1.86,76.96-15.02l1.46,4.98C230.09,379.12,214.04,384.79,197.14,384.8z"/>
	<path class="st14" d="M97.18,243.68c-0.43-1.25-13.43-45.22,2.82-76.15c13.29-25.31,39.91-43.63,79.1-54.47l7.28,26.56
		c-25.77-22.68-65.27,9.92-77.22,32.54c-14.23,26.93-3.51,58.3-3.42,58.57L97.18,243.68z"/>
	<path class="st15" d="M154.17,284.73"/>
	
		<ellipse transform="matrix(0.038 -0.9993 0.9993 0.038 -71.4688 369.3185)" class="st16" cx="156.08" cy="221.78" rx="35.13" ry="24.37"/>
	<path class="st17" d="M210.85,265.75c-4.71-8.28-9.53-17.24-14.91-15.13c-0.98,0.38-1.79,1.13-2.43,2.15
		c-3.24,2.76-6.32,8.37-9.35,13.7c-4.96,8.73-9.02,15.85-0.98,21.61c6.32,4.53,10.84-0.23,14.53-6.87
		c3.62,6.26,8.03,10.51,14.13,6.15C219.87,281.6,215.81,274.48,210.85,265.75z"/>
	<path class="st18" d="M154.17,284.73c0,0,23.09-19.24,19.24,1.92c0,0-1.92,24.37-21.17,25.02
		C152.24,311.67,168.28,297.56,154.17,284.73z"/>
	<path class="st18" d="M103.49,271.9c4.14,15.21,19.28,25.89,39.13,26.3c5.38,5.76,0.64,17.96,9.62,29.51
		c3.73,4.8,2.81,14.45,4.49,16.04c22.75,21.49,62.48,15.93,97.5,1.92c0,0,2.35,15.07-3.85,19.24
		c-59.01,39.77-107.76,4.49-105.2-15.39c-0.54-0.81-10.9-43.62-14.11-41.05C98.36,305.26,98.96,261.01,103.49,271.9z"/>
	<path class="st0" d="M239.47,328.82c-55.03,20.93-82.75-3.68-82.75-3.68c-13.03,8.29,2.61,14.73,2.61,14.73s27.37,20.26,80.8,0
		C240.12,339.87,256.41,322.38,239.47,328.82z"/>
	<path class="st0" d="M143.46,142.12c0,0-48.75,50.67-26.94,112.25c0,0,4.49,33.35,33.35,36.56c0,0-20.58,25.55-37.55-5.83
		l-7.99-43.56c0,0-19.87-24.74-8.97-59.52C95.36,182.03,124.85,136.35,143.46,142.12z"/>
	<path class="st19" d="M250.38,317.44c0,0-4.49-20.53,13.47-21.17c0,0,21.81,0,25.66-28.22l-8.98-16.68c0,0,14.75,47.47-35.28,41.69
		L250.38,317.44z"/>
	
		<ellipse transform="matrix(0.038 -0.9993 0.9993 0.038 13.7986 457.6012)" class="st16" cx="244.57" cy="221.63" rx="35.13" ry="24.37"/>
	<path class="st0" d="M179.18,257.79c0,0,16.68-10.26,16.04-47.47c0,0-5.77-7.06-7.7,6.41c-1.92,13.47-2.57,28.86-21.17,44.9
		C166.35,261.64,162.51,277.68,179.18,257.79z"/>
	<path class="st0" d="M241.49,283.93c0,0-23.09-19.24-19.24,1.92c0,0,1.92,24.37,21.17,25.02
		C243.42,310.87,227.38,296.76,241.49,283.93z"/>
	<path class="st6" d="M100.19,232.6l7.7-0.64c0,0,11.56,19.31-0.62,31.49l-7.7,0.64L100.19,232.6z"/>
	<ellipse class="st7" cx="100.07" cy="248.12" rx="6.3" ry="15.38"/>
	<ellipse class="st8" cx="97.18" cy="247.96" rx="2.79" ry="6.81"/>
</g>
</svg>
